<svg width="27" height="18" viewBox="0 0 27 18" fill="none" xmlns="http://www.w3.org/2000/svg">
<path d="M26.5781 8.0625C26.8594 8.4375 27 8.90625 27 9.375V15.75C27 17.0156 25.9688 18 24.75 18H2.25C0.984375 18 0 17.0156 0 15.75V9.375C0 8.95312 0.140625 8.39062 0.375 8.0625L5.29688 0.984375C5.67188 0.46875 6.51562 0 7.17188 0H19.7812C20.4375 0 21.2812 0.46875 21.6562 0.984375L26.5781 8.0625ZM7.17188 2.25L3.51562 7.5H9.23438L10.7344 10.5H16.2188L17.7188 7.5H23.4375L19.7812 2.25H7.17188ZM24.75 15.75V9.75H19.125L17.625 12.75H9.375L7.875 9.75H2.25V15.75H24.75Z" fill="#2E1401"/>
</svg>
