<svg width="21" height="20" viewBox="0 0 21 20" fill="none" xmlns="http://www.w3.org/2000/svg">
<g clip-path="url(#clip0_35_272)">
<path fill-rule="evenodd" clip-rule="evenodd" d="M14.0127 16.8223C14.2804 16.8613 14.542 16.8808 14.7963 16.8808C17.0814 16.8808 18.7994 15.3279 19.1768 12.8223L20.1604 6.23773C20.5789 3.45209 19.065 1.30952 16.3932 0.906445L11.8288 0.219368L11.8276 0.218752L11.8264 0.218137C9.14975 -0.171217 7.08034 1.43183 6.66294 4.21824L5.67832 10.8028C5.25986 13.5884 6.77473 15.732 9.44657 16.1341L14.0127 16.8223ZM15.6264 7.99111C15.6633 7.99624 15.7002 7.99932 15.7371 7.99932C16.1135 7.99932 16.4417 7.72238 16.4971 7.33982C16.5587 6.91931 16.2674 6.52956 15.8459 6.46905L11.2356 5.80136C10.8089 5.74084 10.4253 6.03315 10.3648 6.45264C10.3033 6.87315 10.5946 7.2629 11.0151 7.32443L15.6264 7.99111ZM13.253 11.4168C13.29 11.4219 13.3269 11.425 13.3638 11.425C13.7402 11.425 14.0684 11.1491 14.1238 10.7655C14.1853 10.345 13.8941 9.95521 13.4725 9.8947L10.7074 9.49367C10.2889 9.43726 9.89611 9.72342 9.8356 10.145C9.77508 10.5655 10.0664 10.9552 10.4869 11.0157L13.253 11.4168Z" fill="#2E1401"/>
<path d="M11.8724 18.0552L9.21665 17.656C5.69148 17.1237 3.61147 14.2119 4.15711 10.574L5.14173 3.99035C5.15934 3.87281 5.04743 3.77546 4.93452 3.81256L3.46139 4.29656C2.23575 4.69861 1.31472 5.45348 0.798826 6.48015C0.259339 7.55092 0.207031 8.87087 0.648057 10.195L2.72498 16.514C3.42447 18.6278 5.01626 19.8401 6.91677 19.8401C7.42139 19.8401 7.94754 19.755 8.48496 19.5775L11.906 18.4529C12.1113 18.3854 12.0862 18.0874 11.8724 18.0552Z" fill="#2E1401"/>
</g>
<defs>
<clipPath id="clip0_35_272">
<rect width="20.7692" height="20" rx="3.84615" fill="white"/>
</clipPath>
</defs>
</svg>
