<svg width="14" height="14" viewBox="0 0 14 14" fill="none" xmlns="http://www.w3.org/2000/svg">
<path d="M7 0C10.8387 0 14 3.16129 14 7C14 10.8669 10.8387 14 7 14C3.13306 14 0 10.8669 0 7C0 3.16129 3.13306 0 7 0ZM7 1.35484C3.86694 1.35484 1.35484 3.89516 1.35484 7C1.35484 10.1331 3.86694 12.6452 7 12.6452C10.1048 12.6452 12.6452 10.1331 12.6452 7C12.6452 3.89516 10.1048 1.35484 7 1.35484ZM10.9516 5.05242C11.0645 5.16532 11.0645 5.39113 10.9516 5.53226L6.06855 10.3589C5.92742 10.5 5.72984 10.5 5.58871 10.3589L3.02016 7.7621C2.90726 7.64919 2.90726 7.42339 3.02016 7.28226L3.66935 6.66129C3.81048 6.52016 4.00806 6.52016 4.14919 6.66129L5.84274 8.35484L9.82258 4.40323C9.96371 4.2621 10.1895 4.2621 10.3024 4.40323L10.9516 5.05242Z" fill="black"/>
</svg>
