<svg width="157" height="40" viewBox="0 0 157 40" fill="none" xmlns="http://www.w3.org/2000/svg">
<mask id="path-1-inside-1_0_195" fill="white">
<path d="M0 20C0 8.95431 8.95431 0 20 0C31.0457 0 40 8.95431 40 20C40 31.0457 31.0457 40 20 40C8.95431 40 0 31.0457 0 20Z"/>
</mask>
<path d="M0 20C0 8.95431 8.95431 0 20 0C31.0457 0 40 8.95431 40 20C40 31.0457 31.0457 40 20 40C8.95431 40 0 31.0457 0 20Z" fill="#F8CB46"/>
<path d="M-1 20C-1 8.40202 8.40202 -1 20 -1H21C32.598 -1 42 8.40202 42 20H38C38 9.50659 29.9411 1 20 1C9.50659 1 1 9.50659 1 20H-1ZM42 20C42 32.1503 32.1503 42 20 42C8.40202 42 -1 32.598 -1 21L1 20C1 29.9411 9.50659 38 20 38C29.9411 38 38 29.9411 38 20H42ZM20 42C8.40202 42 -1 32.598 -1 21V20C-1 8.40202 8.40202 -1 20 -1V1C9.50659 1 1 9.50659 1 20C1 29.9411 9.50659 38 20 38V42ZM21 -1C32.598 -1 42 8.40202 42 20C42 32.1503 32.1503 42 20 42V38C29.9411 38 38 29.9411 38 20C38 9.50659 29.9411 1 20 1L21 -1Z" fill="#2E1401" mask="url(#path-1-inside-1_0_195)"/>
<g clip-path="url(#clip0_0_195)">
<path fill-rule="evenodd" clip-rule="evenodd" d="M23.6281 26.8223C23.8958 26.8613 24.1573 26.8808 24.4117 26.8808C26.6968 26.8808 28.4148 25.3279 28.7922 22.8223L29.7758 16.2377C30.1943 13.4521 28.6804 11.3095 26.0086 10.9064L21.4442 10.2194L21.443 10.2188L21.4418 10.2181C18.7651 9.82878 16.6957 11.4318 16.2783 14.2182L15.2937 20.8028C14.8752 23.5884 16.3901 25.732 19.062 26.1341L23.6281 26.8223ZM25.2418 17.9911C25.2787 17.9962 25.3156 17.9993 25.3525 17.9993C25.7289 17.9993 26.0571 17.7224 26.1125 17.3398C26.1741 16.9193 25.8828 16.5296 25.4612 16.469L20.851 15.8014C20.4243 15.7408 20.0407 16.0332 19.9802 16.4526C19.9187 16.8732 20.21 17.2629 20.6305 17.3244L25.2418 17.9911ZM22.8684 21.4168C22.9053 21.4219 22.9423 21.425 22.9792 21.425C23.3556 21.425 23.6838 21.1491 23.7392 20.7655C23.8007 20.345 23.5094 19.9552 23.0879 19.8947L20.3228 19.4937C19.9043 19.4373 19.5115 19.7234 19.451 20.145C19.3905 20.5655 19.6818 20.9552 20.1023 21.0157L22.8684 21.4168Z" fill="#2E1401"/>
<path d="M21.4877 28.0552L18.8319 27.656C15.3068 27.1237 13.2268 24.2119 13.7724 20.574L14.757 13.9904C14.7746 13.8728 14.6627 13.7755 14.5498 13.8126L13.0767 14.2966C11.851 14.6986 10.93 15.4535 10.4141 16.4801C9.87463 17.5509 9.82233 18.8709 10.2634 20.195L12.3403 26.514C13.0398 28.6278 14.6316 29.8401 16.5321 29.8401C17.0367 29.8401 17.5628 29.755 18.1003 29.5775L21.5213 28.4529C21.7266 28.3854 21.7015 28.0874 21.4877 28.0552Z" fill="#2E1401"/>
</g>
<path d="M143.096 22.352C143.096 21.136 143.336 20.04 143.816 19.064C144.296 18.072 144.96 17.288 145.808 16.712C146.656 16.136 147.624 15.848 148.712 15.848C149.64 15.848 150.472 16.08 151.208 16.544C151.96 16.992 152.544 17.568 152.96 18.272V11.12H156.176V25.04C156.176 25.376 156.232 25.616 156.344 25.76C156.456 25.904 156.648 25.992 156.92 26.024V28.64C156.36 28.752 155.904 28.808 155.552 28.808C154.976 28.808 154.496 28.664 154.112 28.376C153.744 28.088 153.536 27.712 153.488 27.248L153.44 26.456C152.976 27.24 152.344 27.84 151.544 28.256C150.76 28.672 149.936 28.88 149.072 28.88C148.208 28.88 147.408 28.712 146.672 28.376C145.952 28.04 145.32 27.576 144.776 26.984C144.248 26.392 143.832 25.704 143.528 24.92C143.24 24.12 143.096 23.264 143.096 22.352ZM152.96 24.032V21.032C152.8 20.568 152.544 20.152 152.192 19.784C151.84 19.416 151.448 19.128 151.016 18.92C150.584 18.696 150.152 18.584 149.72 18.584C149.224 18.584 148.776 18.688 148.376 18.896C147.976 19.104 147.624 19.384 147.32 19.736C147.032 20.088 146.808 20.496 146.648 20.96C146.504 21.424 146.432 21.912 146.432 22.424C146.432 22.936 146.512 23.424 146.672 23.888C146.848 24.336 147.096 24.728 147.416 25.064C147.736 25.4 148.104 25.664 148.52 25.856C148.952 26.048 149.416 26.144 149.912 26.144C150.216 26.144 150.52 26.096 150.824 26C151.144 25.888 151.44 25.744 151.712 25.568C152 25.376 152.248 25.152 152.456 24.896C152.68 24.624 152.848 24.336 152.96 24.032Z" fill="#2E1401"/>
<path d="M142.668 18.848C141.692 18.848 140.82 19.04 140.052 19.424C139.284 19.792 138.732 20.328 138.396 21.032V28.64H135.18V16.064H138.132V18.752C138.58 17.888 139.148 17.208 139.836 16.712C140.524 16.216 141.252 15.944 142.02 15.896C142.196 15.896 142.332 15.896 142.428 15.896C142.524 15.896 142.604 15.904 142.668 15.92V18.848Z" fill="#2E1401"/>
<path d="M121.014 24.92C121.014 24.104 121.238 23.392 121.686 22.784C122.15 22.16 122.79 21.68 123.606 21.344C124.422 21.008 125.358 20.84 126.414 20.84C126.942 20.84 127.478 20.88 128.022 20.96C128.566 21.04 129.038 21.168 129.438 21.344V20.672C129.438 19.872 129.198 19.256 128.718 18.824C128.254 18.392 127.558 18.176 126.63 18.176C125.942 18.176 125.286 18.296 124.662 18.536C124.038 18.776 123.382 19.128 122.694 19.592L121.662 17.48C122.494 16.936 123.342 16.528 124.206 16.256C125.086 15.984 126.006 15.848 126.966 15.848C128.758 15.848 130.15 16.296 131.142 17.192C132.15 18.088 132.654 19.368 132.654 21.032V25.04C132.654 25.376 132.71 25.616 132.822 25.76C132.95 25.904 133.15 25.992 133.422 26.024V28.64C133.134 28.688 132.87 28.728 132.63 28.76C132.406 28.792 132.214 28.808 132.054 28.808C131.414 28.808 130.926 28.664 130.59 28.376C130.27 28.088 130.07 27.736 129.99 27.32L129.918 26.672C129.374 27.376 128.694 27.92 127.878 28.304C127.062 28.688 126.23 28.88 125.382 28.88C124.55 28.88 123.798 28.712 123.126 28.376C122.47 28.024 121.95 27.552 121.566 26.96C121.198 26.352 121.014 25.672 121.014 24.92ZM128.838 25.568C129.014 25.376 129.158 25.184 129.27 24.992C129.382 24.8 129.438 24.624 129.438 24.464V23.192C129.054 23.032 128.638 22.912 128.19 22.832C127.742 22.736 127.318 22.688 126.918 22.688C126.086 22.688 125.398 22.872 124.854 23.24C124.326 23.592 124.062 24.064 124.062 24.656C124.062 24.976 124.15 25.28 124.326 25.568C124.502 25.856 124.758 26.088 125.094 26.264C125.43 26.44 125.83 26.528 126.294 26.528C126.774 26.528 127.246 26.44 127.71 26.264C128.174 26.072 128.55 25.84 128.838 25.568Z" fill="#2E1401"/>
<path d="M114.668 28.88C113.644 28.88 112.724 28.712 111.908 28.376C111.092 28.024 110.396 27.544 109.82 26.936C109.244 26.312 108.796 25.608 108.476 24.824C108.172 24.04 108.02 23.216 108.02 22.352C108.02 21.168 108.284 20.088 108.812 19.112C109.356 18.12 110.124 17.328 111.116 16.736C112.108 16.144 113.284 15.848 114.644 15.848C116.004 15.848 117.172 16.144 118.148 16.736C119.124 17.328 119.852 18.104 120.332 19.064L117.188 20.024C116.916 19.56 116.556 19.208 116.108 18.968C115.66 18.712 115.164 18.584 114.62 18.584C114.012 18.584 113.452 18.744 112.94 19.064C112.444 19.368 112.052 19.808 111.764 20.384C111.476 20.944 111.332 21.6 111.332 22.352C111.332 23.088 111.476 23.744 111.764 24.32C112.068 24.88 112.468 25.328 112.964 25.664C113.46 25.984 114.012 26.144 114.62 26.144C115.004 26.144 115.364 26.08 115.7 25.952C116.052 25.824 116.364 25.648 116.636 25.424C116.908 25.2 117.108 24.944 117.236 24.656L120.38 25.616C120.092 26.24 119.668 26.8 119.108 27.296C118.564 27.792 117.916 28.184 117.164 28.472C116.428 28.744 115.596 28.88 114.668 28.88Z" fill="#2E1401"/>
<path d="M106.495 28.64H103.279V21.584C103.279 20.608 103.087 19.88 102.703 19.4C102.335 18.92 101.823 18.68 101.167 18.68C100.783 18.68 100.375 18.792 99.9432 19.016C99.5112 19.24 99.1192 19.552 98.7672 19.952C98.4312 20.336 98.1832 20.784 98.0232 21.296V28.64H94.8072V11.12H98.0232V18.392C98.4872 17.592 99.1192 16.968 99.9192 16.52C100.719 16.072 101.591 15.848 102.535 15.848C103.351 15.848 104.015 15.992 104.527 16.28C105.039 16.552 105.439 16.928 105.727 17.408C106.015 17.872 106.215 18.4 106.327 18.992C106.439 19.568 106.495 20.168 106.495 20.792V28.64Z" fill="#2E1401"/>
<path d="M88.0598 28.88C86.9878 28.88 85.9638 28.704 84.9878 28.352C84.0118 28 83.1718 27.48 82.4678 26.792L83.6198 24.704C84.3718 25.312 85.1078 25.76 85.8278 26.048C86.5638 26.336 87.2678 26.48 87.9398 26.48C88.5638 26.48 89.0598 26.368 89.4278 26.144C89.8118 25.92 90.0038 25.584 90.0038 25.136C90.0038 24.832 89.8998 24.6 89.6918 24.44C89.4838 24.264 89.1798 24.112 88.7798 23.984C88.3958 23.856 87.9238 23.712 87.3638 23.552C86.4358 23.248 85.6598 22.952 85.0358 22.664C84.4118 22.376 83.9398 22.016 83.6198 21.584C83.3158 21.136 83.1638 20.568 83.1638 19.88C83.1638 19.048 83.3718 18.336 83.7878 17.744C84.2198 17.136 84.8118 16.664 85.5638 16.328C86.3318 15.992 87.2278 15.824 88.2518 15.824C89.1478 15.824 89.9958 15.968 90.7958 16.256C91.5958 16.528 92.3238 16.976 92.9798 17.6L91.6838 19.64C91.0438 19.144 90.4358 18.784 89.8598 18.56C89.2838 18.32 88.6998 18.2 88.1078 18.2C87.7718 18.2 87.4518 18.24 87.1478 18.32C86.8598 18.4 86.6198 18.536 86.4278 18.728C86.2518 18.904 86.1638 19.16 86.1638 19.496C86.1638 19.8 86.2438 20.04 86.4038 20.216C86.5798 20.376 86.8358 20.52 87.1718 20.648C87.5238 20.776 87.9478 20.92 88.4438 21.08C89.4518 21.368 90.2998 21.664 90.9878 21.968C91.6918 22.272 92.2198 22.648 92.5718 23.096C92.9238 23.528 93.0998 24.128 93.0998 24.896C93.0998 26.144 92.6438 27.12 91.7318 27.824C90.8198 28.528 89.5958 28.88 88.0598 28.88Z" fill="#2E1401"/>
<path d="M69.2626 24.92C69.2626 24.104 69.4866 23.392 69.9346 22.784C70.3986 22.16 71.0386 21.68 71.8546 21.344C72.6706 21.008 73.6066 20.84 74.6626 20.84C75.1906 20.84 75.7266 20.88 76.2706 20.96C76.8146 21.04 77.2866 21.168 77.6866 21.344V20.672C77.6866 19.872 77.4466 19.256 76.9666 18.824C76.5026 18.392 75.8066 18.176 74.8786 18.176C74.1906 18.176 73.5346 18.296 72.9106 18.536C72.2866 18.776 71.6306 19.128 70.9426 19.592L69.9106 17.48C70.7426 16.936 71.5906 16.528 72.4546 16.256C73.3346 15.984 74.2546 15.848 75.2146 15.848C77.0066 15.848 78.3986 16.296 79.3906 17.192C80.3986 18.088 80.9026 19.368 80.9026 21.032V25.04C80.9026 25.376 80.9586 25.616 81.0706 25.76C81.1986 25.904 81.3986 25.992 81.6706 26.024V28.64C81.3826 28.688 81.1186 28.728 80.8786 28.76C80.6546 28.792 80.4626 28.808 80.3026 28.808C79.6626 28.808 79.1746 28.664 78.8386 28.376C78.5186 28.088 78.3186 27.736 78.2386 27.32L78.1666 26.672C77.6226 27.376 76.9426 27.92 76.1266 28.304C75.3106 28.688 74.4786 28.88 73.6306 28.88C72.7986 28.88 72.0466 28.712 71.3746 28.376C70.7186 28.024 70.1986 27.552 69.8146 26.96C69.4466 26.352 69.2626 25.672 69.2626 24.92ZM77.0866 25.568C77.2626 25.376 77.4066 25.184 77.5186 24.992C77.6306 24.8 77.6866 24.624 77.6866 24.464V23.192C77.3026 23.032 76.8866 22.912 76.4386 22.832C75.9906 22.736 75.5666 22.688 75.1666 22.688C74.3346 22.688 73.6466 22.872 73.1026 23.24C72.5746 23.592 72.3106 24.064 72.3106 24.656C72.3106 24.976 72.3986 25.28 72.5746 25.568C72.7506 25.856 73.0066 26.088 73.3426 26.264C73.6786 26.44 74.0786 26.528 74.5426 26.528C75.0226 26.528 75.4946 26.44 75.9586 26.264C76.4226 26.072 76.7986 25.84 77.0866 25.568Z" fill="#2E1401"/>
<path d="M62.9654 11.12H66.1814V24.608C66.1814 25.184 66.2774 25.576 66.4694 25.784C66.6614 25.976 66.9254 26.072 67.2614 26.072C67.5174 26.072 67.7814 26.04 68.0534 25.976C68.3254 25.912 68.5654 25.832 68.7734 25.736L69.2054 28.184C68.7734 28.392 68.2694 28.552 67.6934 28.664C67.1174 28.776 66.5974 28.832 66.1334 28.832C65.1254 28.832 64.3414 28.568 63.7814 28.04C63.2374 27.496 62.9654 26.728 62.9654 25.736V11.12Z" fill="#2E1401"/>
<path d="M50.0001 28.64V11.6H61.4481V14.504H53.3121V18.896H60.0801V21.584H53.3121V28.64H50.0001Z" fill="#2E1401"/>
<defs>
<clipPath id="clip0_0_195">
<rect x="9.61539" y="10" width="20.7692" height="20" rx="3.84615" fill="white"/>
</clipPath>
</defs>
</svg>
