<svg width="16" height="16" viewBox="0 0 16 16" fill="none" xmlns="http://www.w3.org/2000/svg">
<path d="M15.7852 12.4919L13.2852 14.7731C12.8164 15.2419 12.0039 14.9294 12.0039 14.2419V12.9919H11.0352C10.9102 12.9919 10.8164 12.9606 10.7539 12.8669L7.94141 9.83564L9.12891 8.55439L11.6289 11.2419H12.0039V9.74189C12.0039 9.08564 12.8164 8.74189 13.2852 9.21064L15.7852 11.4294C16.0664 11.7419 16.0664 12.2106 15.7852 12.4919ZM0.378906 4.74189C0.160156 4.74189 0.00390625 4.58564 0.00390625 4.36689V3.36689C0.00390625 3.17939 0.160156 2.99189 0.378906 2.99189H3.84766C3.94141 2.99189 4.03516 3.05439 4.09766 3.11689L6.91016 6.14814L5.72266 7.46064L3.22266 4.74189H0.378906ZM15.7852 3.46064C16.0664 3.74189 16.0664 4.21064 15.7852 4.49189L13.2852 6.77314C12.8164 7.27314 12.0039 6.92939 12.0039 6.24189V4.74189H11.6289L4.09766 12.8981C4.03516 12.9606 3.94141 12.9919 3.84766 12.9919H0.378906C0.160156 12.9919 0.00390625 12.8356 0.00390625 12.6169V11.6169C0.00390625 11.4294 0.160156 11.2419 0.378906 11.2419H3.22266L10.7539 3.11689C10.8164 3.05439 10.9102 2.99189 11.0352 2.99189H12.0039V1.74189C12.0039 1.08564 12.8164 0.741888 13.2852 1.24189L15.7852 3.46064Z" fill="#2E1401"/>
</svg>
