<svg width="14" height="14" viewBox="0 0 14 14" fill="none" xmlns="http://www.w3.org/2000/svg">
<path d="M0.564516 0.592742L2.03226 2.06048C3.30242 0.790323 5.05242 0 6.97177 0C10.8387 0 14 3.16129 14 7.02823C13.9718 10.8952 10.8387 14 7 14C5.19355 14 3.52823 13.3226 2.28629 12.2218C2.14516 12.0806 2.14516 11.8548 2.28629 11.7137L2.85081 11.1492C2.96371 11.0363 3.16129 11.0363 3.30242 11.1492C4.29032 12.0242 5.56048 12.5323 7 12.5323C10.0484 12.5323 12.5323 10.0766 12.5323 7C12.5323 3.95161 10.0484 1.46774 7 1.46774C5.44758 1.46774 4.06452 2.08871 3.07661 3.10484L4.60081 4.62903C4.82661 4.85484 4.65726 5.19355 4.375 5.19355H0.33871C0.141129 5.19355 0 5.05242 0 4.85484V0.818548C0 0.53629 0.33871 0.366935 0.564516 0.592742Z" fill="black"/>
</svg>
